<?xml version="1.0" standalone="no"?>
<!DOCTYPE svg PUBLIC "-//W3C//DTD SVG 20010904//EN"
 "http://www.w3.org/TR/2001/REC-SVG-20010904/DTD/svg10.dtd">
<svg version="1.0" xmlns="http://www.w3.org/2000/svg"
 width="200.000000pt" height="200.000000pt" viewBox="0 0 200.000000 200.000000"
 preserveAspectRatio="xMidYMid meet">
<metadata>
Created by potrace 1.10, written by Peter Selinger 2001-2011
</metadata>
<g transform="translate(0.000000,200.000000) scale(0.100000,-0.100000)"
fill="#000000" stroke="none">
<path d="M1012 1984 c-18 -7 -32 -18 -32 -24 0 -5 0 -12 0 -15 0 -3 -6 -18
-15 -34 -8 -16 -41 -202 -74 -413 -52 -340 -71 -428 -92 -428 -3 0 -11 55 -17
123 -11 110 -65 585 -76 664 -6 46 -23 72 -51 79 -32 8 -50 1 -68 -28 -12 -19
-13 -55 -6 -223 5 -110 18 -296 29 -412 31 -329 30 -335 -48 -447 -45 -64 -62
-110 -62 -166 l1 -35 18 35 c40 74 97 125 203 181 133 69 218 148 218 200 0
60 37 184 79 267 25 47 41 92 41 113 0 19 9 124 20 232 21 203 22 277 2 314
-16 29 -33 33 -70 17z m62 -29 c24 -36 19 -40 -8 -8 l-25 28 -33 -18 -33 -17
24 20 c31 27 55 25 75 -5z m-19 -150 c-1 -72 -7 -195 -15 -275 -12 -133 -17
-151 -51 -220 -41 -85 -65 -159 -75 -240 -6 -49 -12 -60 -58 -105 -28 -28 -89
-70 -136 -94 -47 -24 -103 -58 -125 -75 -41 -33 -40 -29 11 44 58 83 63 134
40 365 -21 206 -36 437 -36 555 0 76 3 100 16 110 12 11 18 10 34 -6 16 -16
25 -75 60 -389 23 -203 46 -382 52 -397 24 -63 82 -10 99 89 5 32 32 206 59
386 27 181 53 334 56 340 16 29 39 48 53 45 14 -3 16 -23 16 -133z m-391 109
c9 -4 22 -16 28 -28 10 -21 10 -20 -14 2 -32 29 -52 28 -77 -4 -24 -31 -29
-19 -5 14 15 22 38 27 68 16z"/>
<path d="M1055 1324 c-41 -44 -107 -268 -91 -309 5 -15 -76 -96 -144 -142 -25
-17 -76 -46 -115 -66 -76 -39 -139 -97 -177 -167 l-25 -45 107 -295 c119 -326
105 -306 187 -268 96 45 182 163 203 280 19 102 -21 241 -90 315 l-30 31 98
99 c166 165 201 280 120 386 -12 16 -18 11 -66 -59 -30 -42 -56 -73 -59 -70
-3 3 21 44 53 91 66 97 64 97 109 2 l23 -49 22 59 c31 82 36 142 16 181 -30
58 -99 71 -141 26z m99 -25 c29 -23 33 -57 15 -123 l-11 -40 -33 40 c-38 45
-53 42 -92 -16 -20 -29 -23 -30 -23 -11 0 32 55 147 76 160 27 15 38 14 68
-10z m-44 -273 c0 -35 -8 -62 -27 -95 -39 -69 -98 -140 -156 -190 -85 -72 -85
-73 -38 -134 65 -85 84 -139 83 -232 -1 -90 -17 -144 -63 -211 -29 -42 -137
-124 -163 -124 -13 0 -206 523 -206 557 0 21 57 105 89 131 9 7 48 29 86 49
138 70 242 158 323 272 42 58 47 62 59 45 7 -10 13 -40 13 -68z"/>
<path d="M1248 1206 c-10 -7 -40 -73 -67 -147 -27 -74 -61 -159 -74 -190 l-25
-55 28 4 c20 3 32 -3 46 -20 l19 -25 84 161 c89 173 71 169 -29 -6 -56 -99
-63 -106 -81 -95 -10 6 -19 15 -19 19 0 3 28 77 62 163 50 127 66 158 85 166
38 14 61 -4 69 -56 6 -40 2 -54 -30 -113 -19 -37 -59 -114 -88 -171 -54 -106
-135 -207 -160 -199 -8 3 -13 22 -13 55 l1 50 -21 -31 c-17 -25 -28 -31 -58
-31 -57 0 -63 -15 -28 -71 90 -140 101 -280 36 -419 -29 -59 -101 -141 -156
-174 l-34 -21 32 0 c46 0 140 96 184 186 61 128 50 311 -27 423 l-24 36 27 5
c21 5 34 0 50 -17 27 -29 33 -29 69 -1 59 47 86 87 155 228 39 80 76 156 82
168 10 22 12 22 19 5 4 -10 23 -99 43 -198 50 -255 46 -364 -20 -511 -39 -86
-102 -254 -110 -292 -5 -23 -3 -32 7 -32 7 0 25 37 42 88 15 47 48 134 73 191
91 212 93 280 19 646 -41 204 -58 272 -72 282 -23 17 -74 16 -96 -1z"/>
<path d="M1009 760 c-38 -40 -44 -51 -33 -61 18 -14 56 26 71 75 6 20 10 36
10 36 -1 0 -23 -23 -48 -50z"/>
<path d="M1075 763 c-4 -21 -9 -50 -11 -65 -11 -59 43 -35 82 37 15 28 16 36
5 49 -8 9 -26 16 -42 16 -25 0 -29 -4 -34 -37z m55 0 c0 -5 -7 -17 -15 -27
-14 -19 -15 -19 -15 7 0 17 5 27 15 27 8 0 15 -3 15 -7z"/>
</g>
</svg>
