<?xml version="1.0" standalone="no"?>
<!DOCTYPE svg PUBLIC "-//W3C//DTD SVG 20010904//EN"
 "http://www.w3.org/TR/2001/REC-SVG-20010904/DTD/svg10.dtd">
<svg version="1.0" xmlns="http://www.w3.org/2000/svg"
 width="200.000000pt" height="200.000000pt" viewBox="0 0 200.000000 200.000000"
 preserveAspectRatio="xMidYMid meet">
<metadata>
Created by potrace 1.10, written by Peter Selinger 2001-2011
</metadata>
<g transform="translate(0.000000,200.000000) scale(0.050000,-0.050000)"
fill="#000000" stroke="none">
<path d="M2025 3969 c-98 -68 -172 -422 -336 -1599 -16 -113 -65 -223 -88
-197 -8 9 -48 319 -89 687 -109 991 -119 1031 -247 1016 -133 -16 -143 -295
-46 -1323 63 -665 62 -677 -96 -901 -88 -126 -123 -219 -123 -330 l0 -68 79
122 c85 131 180 210 365 304 310 158 423 275 444 458 19 163 77 345 154 482
59 105 64 133 111 590 68 678 35 874 -128 759z"/>
<path d="M2111 2649 c-54 -59 -142 -287 -171 -447 -36 -193 -26 -198 82 -41
146 215 145 214 196 142 24 -34 53 -90 66 -125 l22 -64 35 69 c49 94 88 297
71 365 -36 146 -207 203 -301 101z"/>
<path d="M2495 2412 c-19 -14 -74 -128 -124 -254 l-89 -228 -1 105 c-1 98 -69
283 -104 284 -8 1 -63 -69 -123 -155 -169 -241 -391 -427 -663 -555 -178 -84
-372 -305 -371 -423 1 -104 416 -1176 452 -1170 485 83 701 795 369 1213 l-79
99 84 71 c141 120 234 225 336 381 112 172 116 172 48 4 -60 -147 -60 -144
-13 -144 21 0 61 -18 89 -41 l52 -40 33 62 c17 35 36 59 41 54 22 -22 -107
-223 -196 -307 -113 -106 -145 -98 -133 30 l8 82 -49 -62 c-41 -53 -58 -61
-114 -52 -108 18 -124 -27 -51 -141 258 -403 185 -859 -184 -1137 l-117 -88
497 0 497 0 47 145 c26 80 92 253 147 385 193 462 198 591 47 1329 -81 398
-116 535 -143 555 -46 33 -148 32 -193 -2z"/>
<path d="M2013 1523 c-84 -85 -91 -99 -64 -122 27 -22 38 -21 70 8 31 28 112
211 94 211 -2 0 -47 -44 -100 -97z"/>
<path d="M2187 1605 c-55 -36 -89 -285 -39 -285 38 0 172 158 172 202 0 57
-88 111 -133 83z"/>
</g>
</svg>
