<?xml version="1.0" encoding="UTF-8" standalone="no"?>
<svg
   xmlns:dc="http://purl.org/dc/elements/1.1/"
   xmlns:cc="http://creativecommons.org/ns#"
   xmlns:rdf="http://www.w3.org/1999/02/22-rdf-syntax-ns#"
   xmlns:svg="http://www.w3.org/2000/svg"
   xmlns="http://www.w3.org/2000/svg"
   xmlns:xlink="http://www.w3.org/1999/xlink"
   xmlns:sodipodi="http://sodipodi.sourceforge.net/DTD/sodipodi-0.dtd"
   xmlns:inkscape="http://www.inkscape.org/namespaces/inkscape"
   version="1.0"
   width="108.45899pt"
   height="113.95259pt"
   viewBox="0 0 108.45899 113.95259"
   preserveAspectRatio="xMidYMid meet"
   id="svg1886"
   sodipodi:docname="initLogo3.svg"
   inkscape:version="1.0.2 (e86c870879, 2021-01-15)">
  <defs
     id="defs1890">
    <pattern
       inkscape:collect="always"
       xlink:href="#pattern17"
       id="pattern24"
       patternTransform="matrix(0.55998307,0,0,0.59786722,2.2304829,-3.0654297e-6)" />
    <pattern
       patternUnits="userSpaceOnUse"
       width="193.68262"
       height="190.59849"
       patternTransform="translate(-349.44238,-31.226761)"
       id="pattern17">
      <g
         transform="matrix(0.19458342,0,0,-0.18951882,-476.65728,693.46952)"
         fill="#000000"
         stroke="none"
         id="g1884">
        <path
           d="m 3069,3653 c -14,-3 -49,-73 -49,-97 0,-4 -6,-22 -14,-39 -8,-18 -31,-81 -51,-142 -20,-60 -40,-114 -45,-120 -4,-5 -12,-30 -18,-55 -25,-106 -34,-136 -43,-144 -5,-6 -9,-20 -9,-32 0,-42 -44,-42 -55,-1 -7,23 -29,82 -51,134 -8,17 -14,42 -14,56 0,14 -4,28 -9,32 -5,3 -12,19 -16,36 -4,17 -13,42 -21,57 -8,15 -14,34 -14,42 0,8 -7,24 -15,34 -8,11 -15,29 -15,40 0,11 -10,40 -22,65 -13,25 -27,64 -33,86 l -10,40 h -55 c -63,0 -73,-14 -47,-69 26,-55 36,-80 42,-114 7,-35 31,-88 50,-112 12,-15 17,-32 36,-125 12,-62 40,-148 49,-155 4,-3 17,-27 29,-55 13,-27 27,-57 31,-65 4,-9 11,-30 14,-47 13,-56 79,-78 153,-52 25,8 37,24 62,80 17,38 31,78 31,88 0,10 7,24 15,31 8,7 15,18 15,24 0,7 13,38 29,69 16,32 32,76 36,100 4,23 11,47 17,54 5,6 10,31 10,55 1,23 7,50 13,58 7,8 22,42 35,75 12,33 26,69 31,80 16,42 17,66 2,80 -14,14 -58,18 -94,8 z m 38,-75 c -12,-48 -32,-98 -40,-98 -19,0 -18,36 1,76 23,46 48,61 39,22 z m -571,-24 c -5,-13 -10,-14 -18,-6 -6,6 -8,18 -4,28 5,13 10,14 18,6 6,-6 8,-18 4,-28 z m 34,-86 c 0,-10 -7,-18 -15,-18 -15,0 -21,40 -8,53 9,9 23,-13 23,-35 z m 483,-40 c 4,-23 0,-37 -11,-48 -9,-8 -18,-28 -18,-43 -2,-33 -8,-42 -23,-32 -16,9 -13,55 4,61 8,3 17,26 21,50 7,52 20,57 27,12 z m -457,-5 c 3,-10 10,-26 15,-35 18,-34 9,-43 -16,-14 -25,30 -33,66 -15,66 6,0 13,-8 16,-17 z m 407,-159 c 19,-25 19,-25 -3,-31 -17,-5 -20,-11 -15,-32 4,-19 0,-35 -14,-53 -12,-15 -18,-33 -14,-46 4,-17 1,-22 -15,-22 -32,0 -32,35 0,97 18,35 27,65 24,78 -10,41 11,46 37,9 z m -343,-25 c 0,-11 7,-22 16,-26 11,-4 14,-14 10,-34 -3,-17 0,-32 9,-39 9,-8 15,-29 14,-54 -1,-22 -3,-32 -6,-21 -3,11 -12,26 -21,33 -11,8 -17,29 -18,59 -1,31 -7,49 -18,55 -16,9 -22,39 -10,51 11,11 24,-3 24,-24 z m 87,-226 c 9,-25 46,-77 61,-86 10,-7 10,-12 1,-23 -18,-22 -89,56 -89,96 0,33 17,40 27,13 z"
           id="path1880" />
        <path
           d="m 3312,3638 c -4,-13 -5,-210 -2,-438 3,-228 4,-419 3,-425 -2,-5 -27,-21 -56,-35 -54,-26 -68,-49 -46,-76 17,-20 119,-10 162,16 60,37 66,61 66,257 -1,98 0,250 1,338 1,88 3,210 4,270 l 1,110 -63,3 c -57,3 -63,1 -70,-20 z m 88,-47 c 5,-11 10,-39 10,-62 0,-32 -6,-47 -25,-65 l -25,-23 v 29 c 0,16 4,31 9,35 6,3 4,17 -5,33 -21,40 -18,72 6,72 10,0 24,-9 30,-19 z m 0,-180 c 0,-11 -4,-23 -10,-26 -13,-8 -13,-55 1,-55 6,0 9,-8 7,-17 -6,-31 -32,-20 -39,16 -5,23 -2,45 9,68 18,37 32,43 32,14 z m -17,-171 c 3,-11 3,-37 0,-59 -5,-33 -2,-40 16,-46 18,-5 19,-9 10,-28 -7,-12 -12,-34 -11,-50 0,-16 -6,-31 -14,-34 -18,-7 -18,-29 -1,-36 10,-4 13,-25 11,-83 -3,-79 -15,-107 -35,-87 -8,8 -8,51 -1,154 6,78 7,150 3,158 -10,19 -2,131 9,131 4,0 10,-9 13,-20 z"
           id="path1882" />
      </g>
    </pattern>
  </defs>
  <sodipodi:namedview
     pagecolor="#ffffff"
     bordercolor="#666666"
     borderopacity="1"
     objecttolerance="10"
     gridtolerance="10"
     guidetolerance="10"
     inkscape:pageopacity="0"
     inkscape:pageshadow="2"
     inkscape:window-width="1920"
     inkscape:window-height="1017"
     id="namedview1888"
     showgrid="false"
     inkscape:zoom="0.6725"
     inkscape:cx="-66.394201"
     inkscape:cy="119.1076"
     inkscape:window-x="1358"
     inkscape:window-y="-8"
     inkscape:window-maximized="1"
     inkscape:current-layer="svg1886"
     inkscape:document-rotation="0" />
  <metadata
     id="metadata1878">
Created by potrace 1.10, written by Peter Selinger 2001-2011
<rdf:RDF>
  <cc:Work
     rdf:about="">
    <dc:format>image/svg+xml</dc:format>
    <dc:type
       rdf:resource="http://purl.org/dc/dcmitype/StillImage" />
    <dc:title />
  </cc:Work>
</rdf:RDF>
</metadata>
  <rect
     style="fill:url(#pattern24);stroke:none;stroke-width:0.578616"
     width="108.45899"
     height="113.95259"
     x="2.2304833"
     y="7.1054274e-15"
     id="rect22" />
</svg>
