<svg id="svg" version="1.1" xmlns="http://www.w3.org/2000/svg" xmlns:xlink="http://www.w3.org/1999/xlink" width="400" height="400" viewBox="0, 0, 400,400"><g id="svgg"><path id="path0" d="M212.131 183.824 L 210.262 184.129 210.495 198.591 C 210.723 212.739,210.690 213.078,208.964 214.224 C 206.538 215.835,206.755 216.800,209.543 216.800 C 213.902 216.800,214.385 215.462,214.547 202.943 C 214.627 196.704,214.717 189.857,214.747 187.726 C 214.806 183.433,214.778 183.391,212.131 183.824 M183.662 189.400 C 184.781 192.370,186.057 196.060,186.497 197.600 C 191.876 216.420,196.075 215.212,203.181 192.800 C 206.070 183.689,206.049 184.000,203.786 184.000 C 202.234 184.000,201.639 184.953,199.664 190.600 C 193.238 208.968,194.089 208.630,189.098 194.800 C 185.677 185.321,184.982 184.000,183.413 184.000 L 181.626 184.000 183.662 189.400 M203.533 186.685 C 203.256 187.408,202.695 188.000,202.286 188.000 C 201.878 188.000,201.945 187.250,202.437 186.331 C 203.455 184.428,204.295 184.699,203.533 186.685 M213.799 186.819 C 214.012 187.930,213.935 188.993,213.629 189.182 C 213.322 189.372,213.166 192.963,213.282 197.163 C 213.398 201.363,213.235 204.800,212.919 204.800 C 212.603 204.800,212.305 200.687,212.256 195.660 C 212.208 190.632,211.929 186.132,211.637 185.660 C 211.345 185.187,211.625 184.800,212.260 184.800 C 212.894 184.800,213.587 185.709,213.799 186.819 M185.198 187.991 C 185.487 189.306,186.055 190.587,186.462 190.838 C 186.868 191.089,187.200 191.873,187.200 192.581 C 187.200 194.500,186.227 193.166,184.707 189.163 C 183.963 187.203,183.651 185.600,184.014 185.600 C 184.376 185.600,184.909 186.676,185.198 187.991 M201.691 192.744 C 201.088 193.116,200.840 193.817,201.139 194.301 C 201.484 194.860,201.217 195.003,200.407 194.692 C 199.255 194.250,199.251 194.070,200.367 192.836 C 201.047 192.085,201.479 191.274,201.327 191.035 C 201.175 190.796,201.441 190.930,201.918 191.333 C 202.531 191.851,202.464 192.266,201.691 192.744 M190.040 202.226 C 189.375 202.891,189.074 202.272,188.571 199.200 L 188.112 196.400 189.296 199.093 C 189.948 200.574,190.282 201.984,190.040 202.226 M199.246 200.345 C 198.788 200.896,198.651 201.584,198.940 201.874 C 199.230 202.163,199.107 202.400,198.667 202.400 C 197.216 202.400,196.880 201.450,197.807 199.965 C 198.309 199.161,199.026 198.692,199.399 198.923 C 199.772 199.154,199.703 199.794,199.246 200.345 M191.755 205.600 C 192.253 206.920,192.411 208.000,192.106 208.000 C 191.801 208.000,191.143 206.920,190.645 205.600 C 190.147 204.280,189.989 203.200,190.294 203.200 C 190.599 203.200,191.257 204.280,191.755 205.600 M213.600 209.553 C 213.600 210.407,213.240 211.328,212.800 211.600 C 212.346 211.880,212.000 211.208,212.000 210.047 C 212.000 208.921,212.360 208.000,212.800 208.000 C 213.240 208.000,213.600 208.699,213.600 209.553 " stroke="none" fill="#000000" fill-rule="evenodd"></path></g></svg>