<svg id="svg" version="1.1" xmlns="http://www.w3.org/2000/svg" xmlns:xlink="http://www.w3.org/1999/xlink" width="400" height="400" viewBox="0, 0, 400,400"><g id="svgg"><path id="path0" d="M200.324 116.138 C 199.482 117.098,199.318 117.570,199.957 117.193 C 200.646 116.787,200.436 117.464,199.440 118.863 C 197.075 122.185,196.660 124.234,191.931 156.000 C 188.741 177.431,187.347 184.868,186.252 186.308 C 185.453 187.357,184.800 187.918,184.800 187.554 C 184.800 185.948,178.331 129.769,177.912 127.737 C 177.655 126.493,177.342 124.532,177.215 123.380 C 176.502 116.885,168.671 117.353,166.830 124.000 C 166.361 125.694,166.529 125.602,167.926 123.400 C 170.210 119.802,170.522 120.147,168.564 124.104 C 166.767 127.738,167.339 147.041,170.025 173.350 C 172.270 195.345,171.717 200.413,166.331 207.200 C 163.271 211.056,161.445 216.041,161.747 219.716 L 162.000 222.800 164.156 219.133 C 167.216 213.928,171.530 210.331,179.896 206.011 C 189.714 200.940,195.714 195.034,196.411 189.755 C 197.546 181.161,198.714 177.132,201.981 170.545 L 205.426 163.600 207.129 145.200 C 208.809 127.053,209.049 118.152,207.838 118.900 C 207.497 119.111,207.434 118.720,207.699 118.031 C 209.010 114.615,203.011 113.074,200.324 116.138 M206.576 166.138 C 204.163 167.108,199.153 180.259,198.020 188.600 C 197.285 194.012,197.274 194.018,202.829 185.923 L 207.548 179.047 209.372 181.323 C 210.376 182.576,211.586 184.773,212.063 186.207 C 213.219 189.689,214.043 188.947,215.978 182.682 C 219.627 170.868,215.012 162.748,206.576 166.138 M220.547 177.800 C 219.429 178.836,217.331 183.079,215.602 187.800 C 212.475 196.339,211.570 197.904,212.440 193.269 C 212.937 190.620,209.469 180.800,208.036 180.800 C 207.736 180.800,205.426 183.808,202.903 187.483 C 196.592 196.680,189.075 203.070,177.847 208.785 C 170.700 212.422,165.863 216.969,163.108 222.641 L 161.422 226.110 170.016 249.876 C 179.592 276.359,178.257 274.484,185.080 271.041 C 201.778 262.613,206.533 239.729,194.733 224.583 L 191.899 220.945 198.949 213.849 C 202.827 209.946,207.350 204.432,209.000 201.595 C 212.512 195.556,212.750 195.785,210.000 202.554 C 208.900 205.261,208.000 207.774,208.000 208.138 C 208.000 208.502,208.900 208.800,210.000 208.800 C 211.100 208.800,212.717 209.517,213.593 210.393 C 215.184 211.984,215.191 211.979,218.003 206.393 C 219.553 203.317,220.999 200.800,221.218 200.800 C 222.404 200.800,213.874 215.720,210.935 218.788 C 206.627 223.285,203.043 222.459,205.059 217.434 C 205.287 216.865,205.502 217.369,205.537 218.553 C 205.661 222.793,212.033 218.935,213.310 213.845 C 214.600 208.706,208.217 208.085,206.683 213.200 C 206.155 214.960,205.695 215.717,205.661 214.882 C 205.614 213.703,205.185 213.972,203.746 216.082 C 202.198 218.352,201.427 218.787,199.064 218.719 C 195.270 218.611,193.857 220.689,195.926 223.335 C 207.874 238.617,203.826 261.288,187.200 272.203 C 185.317 273.440,186.344 273.519,204.843 273.558 L 224.485 273.600 226.325 267.800 C 227.337 264.610,229.919 257.825,232.063 252.722 C 239.847 234.196,240.046 229.509,234.282 200.400 C 229.854 178.037,229.054 176.000,224.705 176.000 C 223.486 176.000,221.615 176.810,220.547 177.800 M201.484 212.818 C 198.612 215.853,197.999 216.935,198.783 217.586 C 200.877 219.324,203.351 216.616,205.165 210.600 C 205.885 208.211,205.790 208.269,201.484 212.818 " stroke="none" fill="#000000" fill-rule="evenodd"></path></g></svg>